<svg width="82" height="82" viewBox="0 0 82 82" fill="none" xmlns="http://www.w3.org/2000/svg">
<g clip-path="url(#clip0_2013_254)">
<path d="M41 80.5C62.8152 80.5 80.5 62.8152 80.5 41C80.5 19.1848 62.8152 1.5 41 1.5C19.1848 1.5 1.5 19.1848 1.5 41C1.5 62.8152 19.1848 80.5 41 80.5Z" fill="#06FC99" stroke="#06FC99" stroke-width="3"/>
<path d="M32 21H27V26H32V21Z" fill="#161616"/>
<path d="M37 27H32V35H37V27Z" fill="#161616"/>
<path d="M42 34H37V42H42V34Z" fill="#161616"/>
<path d="M54 36H49V38H54V36Z" fill="#161616"/>
<path d="M59 34H54V36H59V34Z" fill="#161616"/>
<path d="M64 32H59V34H64V32Z" fill="#161616"/>
<path d="M49 38H44V40H49V38Z" fill="#161616"/>
<path d="M44 40H39V42H44V40Z" fill="#161616"/>
<path d="M39 42H34V44H39V42Z" fill="#161616"/>
<path d="M34 44H29V46H34V44Z" fill="#161616"/>
<path d="M29 46H24V48H29V46Z" fill="#161616"/>
<path d="M24 48H19V50H24V48Z" fill="#161616"/>
<path d="M47 39H42V47H47V39Z" fill="#161616"/>
<path d="M52 46H47V54H52V46Z" fill="#161616"/>
<path d="M57 46H52V51H57V46Z" fill="#161616"/>
<path d="M57 21H52V26H57V21Z" fill="#161616"/>
<path d="M32 26H27V31H32V26Z" fill="#161616"/>
<path d="M57 26H52V31H57V26Z" fill="#161616"/>
<path d="M32 31H27V36H32V31Z" fill="#161616"/>
<path d="M57 31H52V36H57V31Z" fill="#161616"/>
<path d="M32 36H27V41H32V36Z" fill="#161616"/>
<path d="M57 36H52V41H57V36Z" fill="#161616"/>
<path d="M32 41H27V46H32V41Z" fill="#161616"/>
<path d="M57 41H52V46H57V41Z" fill="#161616"/>
<path d="M32 46H27V51H32V46Z" fill="#161616"/>
<path d="M57 46H52V51H57V46Z" fill="#161616"/>
<path d="M32 51H27V56H32V51Z" fill="#161616"/>
<path d="M57 51H52V56H57V51Z" fill="#161616"/>
<path d="M32 56H27V61H32V56Z" fill="#161616"/>
<path d="M57 56H52V61H57V56Z" fill="#161616"/>
</g>
<defs>
<clipPath id="clip0_2013_254">
<rect width="82" height="82" fill="white"/>
</clipPath>
</defs>
</svg>
